<svg width="1024" height="1024" viewBox="0 0 1024 1024" fill="none" xmlns="http://www.w3.org/2000/svg">
<path d="M544.096 784.681V785.098C544.096 802.807 529.717 817.18 512 817.18C494.282 817.18 479.903 802.807 479.903 785.098V784.681C479.903 766.972 494.282 752.599 512 752.599C529.717 752.599 544.096 766.972 544.096 784.681ZM537.42 451.124C507.57 443.361 476.886 449.52 453.102 467.935C429.35 486.318 415.709 514.069 415.709 544.098C415.709 552.953 422.899 560.139 431.758 560.139C440.616 560.139 447.806 552.953 447.806 544.098C447.806 524.079 456.889 505.6 472.745 493.312C488.633 481.025 509.271 477.015 529.396 482.18C550.901 487.73 568.394 505.215 573.979 526.742C582.035 557.99 567.656 589.077 538.961 602.327C512.866 614.39 495.983 642.269 495.983 673.292V688.435C495.983 697.29 503.173 704.476 512.032 704.476C520.891 704.476 528.08 697.29 528.08 688.435V673.292C528.08 654.717 537.645 638.291 552.442 631.425C594.745 611.855 616.86 564.47 605.048 518.689C596.639 486.03 570.095 459.498 537.452 451.092L537.42 451.124ZM832.968 447.371V752.631C832.968 832.226 768.165 897 688.532 897H335.467C255.835 897 191.031 832.226 191.031 752.631V271.369C191.031 191.774 255.835 127 335.467 127H512.481C568.201 127 620.615 148.687 659.998 188.084L771.856 299.89C811.271 339.287 832.968 391.644 832.968 447.339V447.371ZM637.306 210.766C619.652 193.121 598.79 179.999 576.193 171.273V335.533C576.193 362.065 597.795 383.656 624.339 383.656H788.707C779.944 361.07 766.816 340.217 749.195 322.572L637.306 210.766ZM800.871 447.371C800.871 436.623 799.652 426.1 797.79 415.77H624.339C580.109 415.77 544.096 379.774 544.096 335.565V162.162C533.729 160.301 523.201 159.082 512.481 159.082H335.467C273.52 159.082 223.128 209.451 223.128 271.369V752.599C223.128 814.517 273.52 864.886 335.467 864.886H688.532C750.479 864.886 800.871 814.517 800.871 752.599V447.339V447.371Z" fill="#585858"/>
</svg>
